# xmcd CD database file
#
# Track frame offsets:
#	150
#	10140
#	25150
#	42348
#	62590
#	80864
#	94401
#	103584
#	112222
#	142661
#	166085
#	196153
#	214688
#
# Disc length: 3081 seconds
#
# Revision: 1
# Processed by: cddbd v1.5.2PL0 Copyright (c) Steve Scherf et al.
# Submitted via: CDex 1.51
#
DISCID=aa0c070d
DTITLE=Gwyneth Herbert - The Sea Cabinet
DYEAR=2011
DGENRE=Jazz
TTITLE0=Sea Theme
TTITLE1=The Regal
TTITLE2=Sweeter
TTITLE3=Alderney
TTITLE4=I Still Hear The Bells
TTITLE5=Fishguard Ladies
TTITLE6=Plenty Time For Praying
TTITLE7=Drink
TTITLE8=The Kings Shilling
TTITLE9=Promises
TTITLE10=Lorelei
TTITLE11=Drip
TTITLE12=Sea Theme Reprise
EXTD=YEAR: 2011
EXTT0=
EXTT1=
EXTT2=
EXTT3=
EXTT4=
EXTT5=
EXTT6=
EXTT7=
EXTT8=
EXTT9=
EXTT10=
EXTT11=
EXTT12=
PLAYORDER=
